<?xml version="1.0" standalone="no"?><!DOCTYPE svg PUBLIC "-//W3C//DTD SVG 1.1//EN" "http://www.w3.org/Graphics/SVG/1.1/DTD/svg11.dtd"><svg t="1731253513731" class="icon" viewBox="0 0 1024 1024" version="1.1" xmlns="http://www.w3.org/2000/svg" p-id="9046" xmlns:xlink="http://www.w3.org/1999/xlink" width="200" height="200"><path d="M259.882667 650.666667a41.301333 41.301333 0 0 1 1.237333-2.901334 13.525333 13.525333 0 0 1 1.237333-1.792l310.144-536.064a128 128 0 1 1 221.696 128l-309.76 535.552a49.578667 49.578667 0 0 1-28.842666 25.429334l-146.602667 81.92a39.466667 39.466667 0 0 1-52.224-30.165334v-166.954666a65.408 65.408 0 0 1 3.114667-33.024z m306.901333-445.525334L311.381333 647.722667l147.2 86.186666 256-443.434666-147.797333-85.333334z m21.333333-36.949333l147.797334 85.333333 21.333333-36.949333-147.797333-85.333333-21.333334 36.949333z m21.333334-36.949333l147.797333 85.333333a85.333333 85.333333 0 0 0-147.797333-85.333333zM301.098667 692.224L298.666667 839.424l125.696-76.032-123.306667-71.168zM64 938.666667h896a21.333333 21.333333 0 1 1 0 42.666666h-896a21.333333 21.333333 0 1 1 0-42.666666z" fill="#000000" fill-opacity=".65" p-id="9047"></path></svg>