<?xml version="1.0" standalone="no"?><!DOCTYPE svg PUBLIC "-//W3C//DTD SVG 1.1//EN" "http://www.w3.org/Graphics/SVG/1.1/DTD/svg11.dtd"><svg t="1731480030087" class="icon" viewBox="0 0 1024 1024" version="1.1" xmlns="http://www.w3.org/2000/svg" p-id="20487" xmlns:xlink="http://www.w3.org/1999/xlink" width="200" height="200"><path d="M512 0C230.4 0 0 230.4 0 512s230.4 512 512 512 512-230.4 512-512S793.6 0 512 0z m8.533333 755.2c-8.533333 8.533333-17.066667 12.8-29.866666 12.8s-21.333333-4.266667-29.866667-12.8c-8.533333-8.533333-12.8-17.066667-12.8-29.866667s4.266667-21.333333 12.8-29.866666c8.533333-8.533333 17.066667-12.8 29.866667-12.8s21.333333 4.266667 29.866666 12.8c8.533333 8.533333 12.8 17.066667 12.8 29.866666 0 12.8-4.266667 21.333333-12.8 29.866667z m102.4-281.6l-55.466666 55.466667c-17.066667 12.8-25.6 25.6-34.133334 38.4-8.533333 17.066667-12.8 34.133333-12.8 51.2v17.066666h-55.466666v-17.066666c0-21.333333 4.266667-42.666667 12.8-59.733334 8.533333-21.333333 34.133333-46.933333 72.533333-81.066666l25.6-25.6c12.8-17.066667 21.333333-34.133333 21.333333-55.466667 0-29.866667-8.533333-51.2-25.6-64-17.066667-17.066667-38.4-25.6-68.266666-25.6-34.133333 0-59.733333 12.8-76.8 34.133333-21.333333 17.066667-29.866667 42.666667-29.866667 81.066667H341.333333c0-51.2 12.8-89.6 42.666667-119.466667 25.6-29.866667 68.266667-46.933333 115.2-46.933333s81.066667 12.8 106.666667 38.4c25.6 25.6 38.4 55.466667 38.4 98.133333 4.266667 29.866667-4.266667 59.733333-21.333334 81.066667z" fill="#FF6A3C" p-id="20488"></path></svg>