<?xml version="1.0" standalone="no"?><!DOCTYPE svg PUBLIC "-//W3C//DTD SVG 1.1//EN" "http://www.w3.org/Graphics/SVG/1.1/DTD/svg11.dtd"><svg t="1731171943371" class="icon" viewBox="0 0 1036 1024" version="1.1" xmlns="http://www.w3.org/2000/svg" p-id="20780" xmlns:xlink="http://www.w3.org/1999/xlink" width="202.34375" height="200"><path d="M522.752 390.912A119.808 119.808 0 1 0 642.56 512a120.064 120.064 0 0 0-119.808-121.088z" p-id="20781"></path><path d="M1025.28 416.256a109.056 109.056 0 0 0-71.936-81.152 167.936 167.936 0 0 1-64.256-36.096 163.328 163.328 0 0 1 0-74.496 107.008 107.008 0 0 0-40.448-105.728l-143.872-84.224-7.936-3.84a107.264 107.264 0 0 0-111.36 20.48 160.768 160.768 0 0 1-62.72 37.376 164.352 164.352 0 0 1-63.744-38.144 105.984 105.984 0 0 0-112.64-17.664L201.472 115.2l-7.424 4.864a107.008 107.008 0 0 0-38.4 106.24 161.792 161.792 0 0 1 0 72.96 164.352 164.352 0 0 1-65.024 36.352 110.08 110.08 0 0 0-71.68 83.2A663.04 663.04 0 0 0 10.752 512a642.304 642.304 0 0 0 9.472 94.464 109.568 109.568 0 0 0 71.936 79.872 166.144 166.144 0 0 1 64.256 36.096 158.72 158.72 0 0 1 0 74.24 106.752 106.752 0 0 0 40.448 105.728l144.896 84.48 7.936 3.584a102.4 102.4 0 0 0 40.192 7.936A106.496 106.496 0 0 0 460.8 971.008a164.352 164.352 0 0 1 62.72-37.12A164.864 164.864 0 0 1 586.752 972.8a105.728 105.728 0 0 0 67.584 25.6h3.072a108.032 108.032 0 0 0 41.728-8.704L844.8 906.24l7.424-5.12a106.496 106.496 0 0 0 38.4-106.24 160.768 160.768 0 0 1 0-72.704 163.072 163.072 0 0 1 65.024-36.352 110.336 110.336 0 0 0 71.68-82.944 651.776 651.776 0 0 0 8.96-92.16 614.4 614.4 0 0 0-11.008-94.464zM522.752 731.904A221.44 221.44 0 1 1 744.192 512a221.696 221.696 0 0 1-221.44 219.904z" p-id="20782"></path></svg>